<svg xmlns="http://www.w3.org/2000/svg" xmlns:xlink="http://www.w3.org/1999/xlink" version="1.1" x="0px" y="0px" width="25" height="25" viewBox="-100 -100 200 200" enable-background="new 0 0 500 500" xml:space="preserve">
    <g>
        <g>
            <polygon points="0,0 36,-50 0,-100" fill="#EDD8B7" />
            <polygon points="0,0 -36,-50 0,-100" fill="#E5C39C" />
        </g>
        <g transform="rotate(72)">
            <polygon points="0,0 36,-50 0,-100" fill="#EDD8B7" />
            <polygon points="0,0 -36,-50 0,-100" fill="#E5C39C" />
        </g>
        <g transform="rotate(-72)">
            <polygon points="0,0 36,-50 0,-100" fill="#EDD8B7" />
            <polygon points="0,0 -36,-50 0,-100" fill="#E5C39C" />
        </g>
        <g transform="rotate(144)">
            <polygon points="0,0 36,-50 0,-100" fill="#EDD8B7" />
            <polygon points="0,0 -36,-50 0,-100" fill="#E5C39C" />
        </g>
        <g transform="rotate(-144)">
            <polygon points="0,0 36,-50 0,-100" fill="#EDD8B7" />
            <polygon points="0,0 -36,-50 0,-100" fill="#E5C39C" />
        </g>
    </g>
</svg>